<svg width="24" height="24" viewBox="0 0 24 24" fill="none" xmlns="http://www.w3.org/2000/svg">
<path d="M19.0409 19.0413H16.0776V14.4004C16.0776 13.2937 16.0578 11.8691 14.5363 11.8691C12.9929 11.8691 12.7567 13.0749 12.7567 14.3199V19.041H9.79337V9.49741H12.6382V10.8017H12.678C12.9627 10.3148 13.3741 9.91439 13.8684 9.64291C14.3627 9.37143 14.9214 9.23911 15.4849 9.26003C18.4884 9.26003 19.0422 11.2357 19.0422 13.8059L19.0409 19.0413ZM6.44969 8.19287C6.10957 8.19293 5.77707 8.09213 5.49424 7.90321C5.2114 7.71429 4.99094 7.44574 4.86072 7.13153C4.73051 6.81731 4.69639 6.47153 4.76268 6.13792C4.82898 5.80431 4.99271 5.49785 5.23317 5.2573C5.47362 5.01675 5.78001 4.8529 6.11359 4.78649C6.44716 4.72007 6.79294 4.75406 7.10719 4.88417C7.42145 5.01428 7.69006 5.23465 7.87908 5.51743C8.06809 5.80021 8.16901 6.13268 8.16907 6.47281C8.16911 6.69865 8.12467 6.92229 8.03828 7.13095C7.9519 7.33962 7.82526 7.52923 7.6656 7.68895C7.50594 7.84867 7.31639 7.97538 7.10776 8.06184C6.89914 8.1483 6.67552 8.19282 6.44969 8.19287ZM7.93138 19.0413H4.96492V9.49741H7.93138V19.0413ZM20.5183 2.00136H3.47582C3.08901 1.997 2.71628 2.14639 2.43955 2.4167C2.16282 2.68702 2.00472 3.05614 2 3.44297V20.5567C2.00456 20.9437 2.16255 21.3131 2.43928 21.5837C2.716 21.8543 3.08881 22.004 3.47582 21.9999H20.5183C20.9061 22.0047 21.2799 21.8555 21.5578 21.5849C21.8356 21.3143 21.9946 20.9445 22 20.5567V3.44173C21.9945 3.05414 21.8353 2.6846 21.5575 2.41429C21.2797 2.14398 20.9059 1.99502 20.5183 2.00013" fill="#0A66C2"/>
</svg>
