<svg width="96" height="23" viewBox="0 0 96 23" fill="none" xmlns="http://www.w3.org/2000/svg">
<path d="M11.34 2.96V5.7H7.62V17H4.2V5.7H0.48V2.96H11.34ZM14.8764 4.68C14.2764 4.68 13.7831 4.50667 13.3964 4.16C13.0231 3.8 12.8364 3.36 12.8364 2.84C12.8364 2.30667 13.0231 1.86667 13.3964 1.52C13.7831 1.16 14.2764 0.979999 14.8764 0.979999C15.4631 0.979999 15.9431 1.16 16.3164 1.52C16.7031 1.86667 16.8964 2.30667 16.8964 2.84C16.8964 3.36 16.7031 3.8 16.3164 4.16C15.9431 4.50667 15.4631 4.68 14.8764 4.68ZM16.5764 5.84V17H13.1564V5.84H16.5764ZM25.9548 5.72C27.2615 5.72 28.3015 6.14667 29.0748 7C29.8615 7.84 30.2548 9 30.2548 10.48V17H26.8548V10.94C26.8548 10.1933 26.6615 9.61333 26.2748 9.2C25.8882 8.78667 25.3682 8.58 24.7148 8.58C24.0615 8.58 23.5415 8.78667 23.1548 9.2C22.7682 9.61333 22.5748 10.1933 22.5748 10.94V17H19.1548V5.84H22.5748V7.32C22.9215 6.82667 23.3882 6.44 23.9748 6.16C24.5615 5.86667 25.2215 5.72 25.9548 5.72ZM44.1314 5.84L37.1314 22.3H33.4514L36.0114 16.62L31.4714 5.84H35.2914L37.8714 12.82L40.4314 5.84H44.1314Z" fill="white"/>
<path d="M64.7881 2.96L61.1281 17H56.9881L54.7481 7.76L52.4281 17H48.2881L44.7281 2.96H48.3881L50.4081 13.18L52.9081 2.96H56.6681L59.0681 13.18L61.1081 2.96H64.7881ZM71.6833 17.16C70.5899 17.16 69.6033 16.9267 68.7233 16.46C67.8566 15.9933 67.1699 15.3267 66.6633 14.46C66.1699 13.5933 65.9233 12.58 65.9233 11.42C65.9233 10.2733 66.1766 9.26667 66.6833 8.4C67.1899 7.52 67.8833 6.84667 68.7633 6.38C69.6433 5.91333 70.6299 5.68 71.7233 5.68C72.8166 5.68 73.8033 5.91333 74.6833 6.38C75.5633 6.84667 76.2566 7.52 76.7633 8.4C77.2699 9.26667 77.5233 10.2733 77.5233 11.42C77.5233 12.5667 77.2633 13.58 76.7433 14.46C76.2366 15.3267 75.5366 15.9933 74.6433 16.46C73.7633 16.9267 72.7766 17.16 71.6833 17.16ZM71.6833 14.2C72.3366 14.2 72.8899 13.96 73.3433 13.48C73.8099 13 74.0433 12.3133 74.0433 11.42C74.0433 10.5267 73.8166 9.84 73.3633 9.36C72.9233 8.88 72.3766 8.64 71.7233 8.64C71.0566 8.64 70.5033 8.88 70.0633 9.36C69.6233 9.82667 69.4033 10.5133 69.4033 11.42C69.4033 12.3133 69.6166 13 70.0433 13.48C70.4833 13.96 71.0299 14.2 71.6833 14.2ZM95.4577 5.84L92.4377 17H88.6577L86.8977 9.76L85.0777 17H81.3177L78.2777 5.84H81.6977L83.2777 13.82L85.1577 5.84H88.7777L90.6777 13.78L92.2377 5.84H95.4577Z" fill="#1A8FE3"/>
</svg>
