<svg width="24" height="24" viewBox="0 0 24 24" fill="none" xmlns="http://www.w3.org/2000/svg">
<path d="M12 21.9836C17.5228 21.9836 21.9999 17.5101 21.9999 11.9918C21.9999 6.47347 17.5228 2 12 2C6.47714 2 2 6.47347 2 11.9918C2 17.5101 6.47714 21.9836 12 21.9836Z" fill="white"/>
<path d="M12 2C6.47735 2 2 6.47368 2 11.9918C2 16.227 4.63373 19.8454 8.35389 21.301C8.26335 20.5115 8.18928 19.2944 8.38681 18.4309C8.56788 17.6497 9.55553 13.4638 9.55553 13.4638C9.55553 13.4638 9.25923 12.8635 9.25923 11.9836C9.25923 10.5938 10.0658 9.55757 11.0699 9.55757C11.9259 9.55757 12.3374 10.199 12.3374 10.9638C12.3374 11.8191 11.7942 13.102 11.5061 14.2944C11.2675 15.2895 12.0082 16.1036 12.9876 16.1036C14.7654 16.1036 16.1316 14.2286 16.1316 11.5312C16.1316 9.13816 14.4115 7.46875 11.9506 7.46875C9.10285 7.46875 7.43208 9.59868 7.43208 11.8026C7.43208 12.6579 7.7613 13.5789 8.17282 14.0806C8.25512 14.1793 8.26335 14.2697 8.23866 14.3684C8.16459 14.6809 7.99175 15.3635 7.95883 15.5033C7.91767 15.6842 7.81068 15.7253 7.62138 15.6349C6.37035 15.051 5.58846 13.2336 5.58846 11.7615C5.58846 8.61184 7.87652 5.71711 12.1975 5.71711C15.6625 5.71711 18.3621 8.18421 18.3621 11.4901C18.3621 14.9359 16.1892 17.7072 13.1769 17.7072C12.1646 17.7072 11.2098 17.1809 10.8889 16.5559C10.8889 16.5559 10.3868 18.4638 10.2633 18.9326C10.0411 19.8043 9.43207 20.8898 9.02055 21.5559C9.95882 21.8438 10.9465 22 11.9835 22C17.5061 22 21.9835 17.5263 21.9835 12.0082C21.9999 6.47368 17.5226 2 12 2Z" fill="#E60023"/>
</svg>
