<svg width="20" height="20" viewBox="0 0 20 20" fill="none" xmlns="http://www.w3.org/2000/svg">
<path d="M7.5013 18.3337H5.83464C2.5013 18.3337 1.66797 17.5003 1.66797 14.167V5.83366C1.66797 2.50033 2.5013 1.66699 5.83464 1.66699H7.08464C8.33464 1.66699 8.60966 2.03367 9.08466 2.667L10.3347 4.33367C10.6513 4.75034 10.8346 5.00033 11.668 5.00033H14.168C17.5013 5.00033 18.3346 5.83366 18.3346 9.16699V10.8337" stroke="#707375" stroke-width="1.2" stroke-miterlimit="10" stroke-linecap="round" stroke-linejoin="round"/>
<path d="M11.4668 15.267C9.50846 15.4087 9.50846 18.242 11.4668 18.3836H16.1001C16.6585 18.3836 17.2085 18.1753 17.6168 17.8003C18.9918 16.6003 18.2584 14.2003 16.4501 13.9753C15.8001 10.067 10.1501 11.5503 11.4835 15.2753" stroke="#707375" stroke-width="1.2" stroke-miterlimit="10" stroke-linecap="round" stroke-linejoin="round"/>
</svg>
