<svg width="77" height="24" viewBox="0 0 77 24" fill="none" xmlns="http://www.w3.org/2000/svg">
<path d="M9.072 6.768V8.96H6.096V18H3.36V8.96H0.384V6.768H9.072ZM11.9011 8.144C11.4211 8.144 11.0265 8.00533 10.7171 7.728C10.4185 7.44 10.2691 7.088 10.2691 6.672C10.2691 6.24533 10.4185 5.89333 10.7171 5.616C11.0265 5.328 11.4211 5.184 11.9011 5.184C12.3705 5.184 12.7545 5.328 13.0531 5.616C13.3625 5.89333 13.5171 6.24533 13.5171 6.672C13.5171 7.088 13.3625 7.44 13.0531 7.728C12.7545 8.00533 12.3705 8.144 11.9011 8.144ZM13.2611 9.072V18H10.5251V9.072H13.2611ZM20.7639 8.976C21.8092 8.976 22.6412 9.31733 23.2599 10C23.8892 10.672 24.2039 11.6 24.2039 12.784V18H21.4839V13.152C21.4839 12.5547 21.3292 12.0907 21.0199 11.76C20.7105 11.4293 20.2945 11.264 19.7719 11.264C19.2492 11.264 18.8332 11.4293 18.5239 11.76C18.2145 12.0907 18.0599 12.5547 18.0599 13.152V18H15.3239V9.072H18.0599V10.256C18.3372 9.86133 18.7105 9.552 19.1799 9.328C19.6492 9.09333 20.1772 8.976 20.7639 8.976ZM35.3051 9.072L29.7051 22.24H26.7611L28.8091 17.696L25.1771 9.072H28.2331L30.2971 14.656L32.3451 9.072H35.3051Z" fill="#181D20"/>
<path d="M51.8305 6.768L48.9025 18H45.5905L43.7985 10.608L41.9425 18H38.6305L35.7825 6.768H38.7105L40.3265 14.944L42.3265 6.768H45.3345L47.2545 14.944L48.8865 6.768H51.8305ZM57.3466 18.128C56.472 18.128 55.6826 17.9413 54.9786 17.568C54.2853 17.1947 53.736 16.6613 53.3306 15.968C52.936 15.2747 52.7386 14.464 52.7386 13.536C52.7386 12.6187 52.9413 11.8133 53.3466 11.12C53.752 10.416 54.3066 9.87733 55.0106 9.504C55.7146 9.13067 56.504 8.944 57.3786 8.944C58.2533 8.944 59.0426 9.13067 59.7466 9.504C60.4506 9.87733 61.0053 10.416 61.4106 11.12C61.816 11.8133 62.0186 12.6187 62.0186 13.536C62.0186 14.4533 61.8106 15.264 61.3946 15.968C60.9893 16.6613 60.4293 17.1947 59.7146 17.568C59.0106 17.9413 58.2213 18.128 57.3466 18.128ZM57.3466 15.76C57.8693 15.76 58.312 15.568 58.6746 15.184C59.048 14.8 59.2346 14.2507 59.2346 13.536C59.2346 12.8213 59.0533 12.272 58.6906 11.888C58.3386 11.504 57.9013 11.312 57.3786 11.312C56.8453 11.312 56.4026 11.504 56.0506 11.888C55.6986 12.2613 55.5226 12.8107 55.5226 13.536C55.5226 14.2507 55.6933 14.8 56.0346 15.184C56.3866 15.568 56.824 15.76 57.3466 15.76ZM76.3661 9.072L73.9501 18H70.9261L69.5181 12.208L68.0621 18H65.0541L62.6221 9.072H65.3581L66.6221 15.456L68.1261 9.072H71.0221L72.5421 15.424L73.7901 9.072H76.3661Z" fill="#1A8FE3"/>
</svg>
