<svg width="48" height="48" viewBox="0 0 48 48" fill="none" xmlns="http://www.w3.org/2000/svg">
<path d="M33.6 4H28.4C22 4 18 8 18 14.4V22.5H30.5C31.32 22.5 32 23.18 32 24C32 24.82 31.32 25.5 30.5 25.5H18V33.6C18 40 22 44 28.4 44H33.58C39.98 44 43.98 40 43.98 33.6V14.4C44 8 40 4 33.6 4Z" fill="white"/>
<path d="M9.11988 22.5001L13.2599 18.3601C13.5599 18.0601 13.6999 17.6801 13.6999 17.3001C13.6999 16.9201 13.5599 16.5201 13.2599 16.2401C12.6799 15.6601 11.7199 15.6601 11.1399 16.2401L4.43988 22.9401C3.85988 23.5201 3.85988 24.4801 4.43988 25.0601L11.1399 31.7601C11.7199 32.3401 12.6799 32.3401 13.2599 31.7601C13.8399 31.1801 13.8399 30.2201 13.2599 29.6401L9.11988 25.5001H17.9999V22.5001H9.11988Z" fill="white"/>
</svg>
