<svg xmlns="http://www.w3.org/2000/svg" style="position: absolute; width: 0; height: 0; overflow: hidden; clip: rect(0 0 0 0);">
    <defs>
        <symbol id="docs" viewBox="0 0 16 16">
            <path d="M9.33366 1.33203H4.00033C3.6467 1.33203 3.30756 1.47251 3.05752 1.72256C2.80747 1.9726 2.66699 2.31174 2.66699 2.66536V13.332C2.66699 13.6857 2.80747 14.0248 3.05752 14.2748C3.30756 14.5249 3.6467 14.6654 4.00033 14.6654H12.0003C12.3539 14.6654 12.6931 14.5249 12.9431 14.2748C13.1932 14.0248 13.3337 13.6857 13.3337 13.332V5.33203L9.33366 1.33203Z" stroke="currentColor" fill="none" stroke-width="1.5" stroke-linecap="round" stroke-linejoin="round"/>
            <path d="M9.33301 1.33203V5.33203H13.333" stroke="currentColor" fill="none" stroke-width="1.5" stroke-linecap="round" stroke-linejoin="round"/>
            <path d="M10.6663 8.66797H5.33301" stroke="currentColor" fill="none" stroke-width="1.5" stroke-linecap="round" stroke-linejoin="round"/>
            <path d="M10.6663 11.332H5.33301" stroke="currentColor" fill="none" stroke-width="1.5" stroke-linecap="round" stroke-linejoin="round"/>
            <path d="M6.66634 6H5.99967H5.33301" stroke="currentColor" fill="none" stroke-width="1.5" stroke-linecap="round" stroke-linejoin="round"/>
        </symbol>
        <symbol id="file" viewBox="0 0 20 20" fill="none" >
            <path d="M10.833 1.66663H4.99967C4.55765 1.66663 4.13372 1.84222 3.82116 2.15478C3.5086 2.46734 3.33301 2.89127 3.33301 3.33329V16.6666C3.33301 17.1087 3.5086 17.5326 3.82116 17.8451C4.13372 18.1577 4.55765 18.3333 4.99967 18.3333H14.9997C15.4417 18.3333 15.8656 18.1577 16.1782 17.8451C16.4907 17.5326 16.6663 17.1087 16.6663 16.6666V7.49996L10.833 1.66663Z" stroke="currentColor" stroke-width="1.5" stroke-linecap="round" stroke-linejoin="round"/>
            <path d="M10.833 1.66663V7.49996H16.6663" stroke="currentColor" stroke-width="1.5" stroke-linecap="round" stroke-linejoin="round"/>
        </symbol>
        <symbol id="cut" viewBox="0 0 20 20" fill="none" >
            <path d="M5 7.49988C6.38071 7.49988 7.5 6.38059 7.5 4.99988C7.5 3.61917 6.38071 2.49988 5 2.49988C3.61929 2.49988 2.5 3.61917 2.5 4.99988C2.5 6.38059 3.61929 7.49988 5 7.49988Z" stroke="currentColor" stroke-width="1.5" stroke-linecap="round" stroke-linejoin="round"/>
            <path d="M5 17.4999C6.38071 17.4999 7.5 16.3806 7.5 14.9999C7.5 13.6192 6.38071 12.4999 5 12.4999C3.61929 12.4999 2.5 13.6192 2.5 14.9999C2.5 16.3806 3.61929 17.4999 5 17.4999Z" stroke="currentColor" stroke-width="1.5" stroke-linecap="round" stroke-linejoin="round"/>
            <path d="M16.6666 3.33325L6.7666 13.2332" stroke="currentColor" stroke-width="1.5" stroke-linecap="round" stroke-linejoin="round"/>
            <path d="M12.0586 12.0665L16.6669 16.6665" stroke="currentColor" stroke-width="1.5" stroke-linecap="round" stroke-linejoin="round"/>
            <path d="M6.7666 6.7666L9.99994 9.99994" stroke="currentColor" stroke-width="1.5" stroke-linecap="round" stroke-linejoin="round"/>
        </symbol>
        <symbol id="merge-old" viewBox="0 0 20 20" fill="none" >
            <path d="M15 17.4999C16.3807 17.4999 17.5 16.3806 17.5 14.9999C17.5 13.6192 16.3807 12.4999 15 12.4999C13.6193 12.4999 12.5 13.6192 12.5 14.9999C12.5 16.3806 13.6193 17.4999 15 17.4999Z" stroke="currentColor" stroke-width="1.5" stroke-linecap="round" stroke-linejoin="round"/>
            <path d="M5 7.49988C6.38071 7.49988 7.5 6.38059 7.5 4.99988C7.5 3.61917 6.38071 2.49988 5 2.49988C3.61929 2.49988 2.5 3.61917 2.5 4.99988C2.5 6.38059 3.61929 7.49988 5 7.49988Z" stroke="currentColor" stroke-width="1.5" stroke-linecap="round" stroke-linejoin="round"/>
            <path d="M5 17.4999V7.49988C5 9.489 5.79018 11.3967 7.1967 12.8032C8.60322 14.2097 10.5109 14.9999 12.5 14.9999" stroke="currentColor" stroke-width="1.5" stroke-linecap="round" stroke-linejoin="round"/>
        </symbol>
        <symbol id="compress-old" viewBox="0 0 20 20" fill="none" >
            <path d="M13.3337 7.49996H17.5003C17.7213 7.49996 17.9333 7.41216 18.0896 7.25588C18.2459 7.0996 18.3337 6.88764 18.3337 6.66663C18.3337 6.44561 18.2459 6.23365 18.0896 6.07737C17.9333 5.92109 17.7213 5.83329 17.5003 5.83329H14.167V2.49996C14.167 2.27895 14.0792 2.06698 13.9229 1.9107C13.7666 1.75442 13.5547 1.66663 13.3337 1.66663C13.1126 1.66663 12.9007 1.75442 12.7444 1.9107C12.5881 2.06698 12.5003 2.27895 12.5003 2.49996V6.66663C12.5003 6.88764 12.5881 7.0996 12.7444 7.25588C12.9007 7.41216 13.1126 7.49996 13.3337 7.49996ZM6.66699 12.5H2.50033C2.27931 12.5 2.06735 12.5878 1.91107 12.744C1.75479 12.9003 1.66699 13.1123 1.66699 13.3333C1.66699 13.5543 1.75479 13.7663 1.91107 13.9225C2.06735 14.0788 2.27931 14.1666 2.50033 14.1666H5.83366V17.5C5.83366 17.721 5.92146 17.9329 6.07774 18.0892C6.23402 18.2455 6.44598 18.3333 6.66699 18.3333C6.88801 18.3333 7.09997 18.2455 7.25625 18.0892C7.41253 17.9329 7.50033 17.721 7.50033 17.5V13.3333C7.50033 13.1123 7.41253 12.9003 7.25625 12.744C7.09997 12.5878 6.88801 12.5 6.66699 12.5ZM6.66699 1.66663C6.44598 1.66663 6.23402 1.75442 6.07774 1.9107C5.92146 2.06698 5.83366 2.27895 5.83366 2.49996V5.83329H2.50033C2.27931 5.83329 2.06735 5.92109 1.91107 6.07737C1.75479 6.23365 1.66699 6.44561 1.66699 6.66663C1.66699 6.88764 1.75479 7.0996 1.91107 7.25588C2.06735 7.41216 2.27931 7.49996 2.50033 7.49996H6.66699C6.88801 7.49996 7.09997 7.41216 7.25625 7.25588C7.41253 7.0996 7.50033 6.88764 7.50033 6.66663V2.49996C7.50033 2.27895 7.41253 2.06698 7.25625 1.9107C7.09997 1.75442 6.88801 1.66663 6.66699 1.66663ZM17.5003 12.5H13.3337C13.1126 12.5 12.9007 12.5878 12.7444 12.744C12.5881 12.9003 12.5003 13.1123 12.5003 13.3333V17.5C12.5003 17.721 12.5881 17.9329 12.7444 18.0892C12.9007 18.2455 13.1126 18.3333 13.3337 18.3333C13.5547 18.3333 13.7666 18.2455 13.9229 18.0892C14.0792 17.9329 14.167 17.721 14.167 17.5V14.1666H17.5003C17.7213 14.1666 17.9333 14.0788 18.0896 13.9225C18.2459 13.7663 18.3337 13.5543 18.3337 13.3333C18.3337 13.1123 18.2459 12.9003 18.0896 12.744C17.9333 12.5878 17.7213 12.5 17.5003 12.5Z" fill="currentColor"/>
        </symbol>
        <symbol id="unlock" viewBox="0 0 20 20" fill="none" >
            <g clip-path="url(#clip0_349_12925)">
                <path d="M15.8333 9.1665H4.16667C3.24619 9.1665 2.5 9.9127 2.5 10.8332V16.6665C2.5 17.587 3.24619 18.3332 4.16667 18.3332H15.8333C16.7538 18.3332 17.5 17.587 17.5 16.6665V10.8332C17.5 9.9127 16.7538 9.1665 15.8333 9.1665Z" stroke="currentColor" stroke-width="1.5" stroke-linecap="round" stroke-linejoin="round"/>
                <path d="M5.83301 9.16655V5.83322C5.83197 4.79992 6.21491 3.80311 6.90749 3.03627C7.60007 2.26944 8.55287 1.7873 9.58093 1.68346C10.609 1.57961 11.639 1.86147 12.4709 2.47431C13.3028 3.08715 13.8774 3.98726 14.083 4.99988" stroke="currentColor" stroke-width="1.5" stroke-linecap="round" stroke-linejoin="round"/>
            </g>
            <defs>
                <clipPath id="clip0_349_12925">
                    <rect width="20" height="20" fill="white" transform="translate(0 -0.00012207)"/>
                </clipPath>
            </defs>
        </symbol>
        <symbol id="lock" viewBox="0 0 20 20" fill="none" >
            <path d="M15.8333 9.16663H4.16667C3.24619 9.16663 2.5 9.91282 2.5 10.8333V16.6666C2.5 17.5871 3.24619 18.3333 4.16667 18.3333H15.8333C16.7538 18.3333 17.5 17.5871 17.5 16.6666V10.8333C17.5 9.91282 16.7538 9.16663 15.8333 9.16663Z" stroke="currentColor" stroke-width="1.5" stroke-linecap="round" stroke-linejoin="round"/>
            <path d="M5.83301 9.16663V5.83329C5.83301 4.72822 6.27199 3.66842 7.0534 2.88701C7.8348 2.10561 8.89461 1.66663 9.99967 1.66663C11.1047 1.66663 12.1646 2.10561 12.946 2.88701C13.7274 3.66842 14.1663 4.72822 14.1663 5.83329V9.16663" stroke="currentColor" stroke-width="1.5" stroke-linecap="round" stroke-linejoin="round"/>
        </symbol>
        <symbol id="rotate" viewBox="0 0 20 20" fill="none" >
            <path d="M19.167 3.33337V8.33337H14.167" stroke="currentColor" stroke-width="1.5" stroke-linecap="round" stroke-linejoin="round"/>
            <path d="M0.833008 16.6666V11.6666H5.83301" stroke="currentColor" stroke-width="1.5" stroke-linecap="round" stroke-linejoin="round"/>
            <path d="M2.92467 7.49998C3.34731 6.30564 4.06562 5.23782 5.01256 4.39616C5.95951 3.55451 7.10423 2.96645 8.33991 2.68686C9.5756 2.40727 10.862 2.44527 12.079 2.79729C13.296 3.14932 14.4041 3.80391 15.2997 4.69998L19.1663 8.33331M0.833008 11.6666L4.69967 15.3C5.5953 16.1961 6.70332 16.8506 7.92035 17.2027C9.13738 17.5547 10.4238 17.5927 11.6594 17.3131C12.8951 17.0335 14.0398 16.4455 14.9868 15.6038C15.9337 14.7621 16.652 13.6943 17.0747 12.5" stroke="currentColor" stroke-width="1.5" stroke-linecap="round" stroke-linejoin="round"/>
        </symbol>
        <symbol id="sign-old" viewBox="0 0 32 32" fill="none" >
            <path d="M14.6666 5.33334H5.33329C4.62605 5.33334 3.94777 5.61429 3.44767 6.11439C2.94758 6.61449 2.66663 7.29277 2.66663 8.00001V26.6667C2.66663 27.3739 2.94758 28.0522 3.44767 28.5523C3.94777 29.0524 4.62605 29.3333 5.33329 29.3333H24C24.7072 29.3333 25.3855 29.0524 25.8856 28.5523C26.3857 28.0522 26.6666 27.3739 26.6666 26.6667V17.3333" stroke="currentColor" stroke-width="2" stroke-linecap="round" stroke-linejoin="round"/>
            <path d="M24.6666 3.33334C25.1971 2.80291 25.9165 2.50491 26.6666 2.50491C27.4168 2.50491 28.1362 2.80291 28.6666 3.33334C29.1971 3.86377 29.4951 4.58319 29.4951 5.33334C29.4951 6.08349 29.1971 6.80291 28.6666 7.33334L16 20L10.6666 21.3333L12 16L24.6666 3.33334Z" stroke="currentColor" stroke-width="2" stroke-linecap="round" stroke-linejoin="round"/>
        </symbol>
        <symbol id="mute" viewBox="0 0 32 32" fill="none" >
            <path d="M14.6666 6.66667L7.99996 12H2.66663V20H7.99996L14.6666 25.3333V6.66667Z" stroke="currentColor" stroke-width="2" stroke-linecap="round" stroke-linejoin="round"/>
            <path d="M30.6666 12L22.6666 20" stroke="currentColor" stroke-width="2" stroke-linecap="round" stroke-linejoin="round"/>
            <path d="M22.6666 12L30.6666 20" stroke="currentColor" stroke-width="2" stroke-linecap="round" stroke-linejoin="round"/>
        </symbol>
        <symbol id="video" viewBox="0 0 12 12">
            <path d="M11.5 3.5L8 6L11.5 8.5V3.5Z" stroke="currentColor" fill="none" stroke-linecap="round" stroke-linejoin="round"/>
            <path d="M7 2.5H1.5C0.947715 2.5 0.5 2.94772 0.5 3.5V8.5C0.5 9.05229 0.947715 9.5 1.5 9.5H7C7.55229 9.5 8 9.05229 8 8.5V3.5C8 2.94772 7.55229 2.5 7 2.5Z" stroke="currentColor" fill="none" stroke-linecap="round" stroke-linejoin="round"/>
        </symbol>
        <symbol id="image-old" viewBox="0 0 16 16">
            <path d="M12.6667 2H3.33333C2.59695 2 2 2.59695 2 3.33333V12.6667C2 13.403 2.59695 14 3.33333 14H12.6667C13.403 14 14 13.403 14 12.6667V3.33333C14 2.59695 13.403 2 12.6667 2Z" stroke="currentColor" fill="none" stroke-width="1.5" stroke-linecap="round" stroke-linejoin="round"/>
            <path d="M5.66602 6.66797C6.2183 6.66797 6.66602 6.22025 6.66602 5.66797C6.66602 5.11568 6.2183 4.66797 5.66602 4.66797C5.11373 4.66797 4.66602 5.11568 4.66602 5.66797C4.66602 6.22025 5.11373 6.66797 5.66602 6.66797Z" stroke="currentColor" stroke-width="1.5" stroke-linecap="round" stroke-linejoin="round" fill="none"/>
            <path d="M14.0007 10.0013L10.6673 6.66797L3.33398 14.0013" stroke="currentColor" stroke-width="1.5" stroke-linecap="round" stroke-linejoin="round" fill="none"/>
        </symbol>
        <symbol id="link" viewBox="0 0 24 24">
            <path d="M10 13C10.4295 13.5741 10.9774 14.0492 11.6066 14.3929C12.2357 14.7367 12.9315 14.9411 13.6467 14.9923C14.3618 15.0436 15.0796 14.9404 15.7513 14.6898C16.4231 14.4392 17.0331 14.0471 17.54 13.54L20.54 10.54C21.4508 9.59699 21.9548 8.33398 21.9434 7.02299C21.932 5.71201 21.4061 4.45795 20.4791 3.53091C19.5521 2.60387 18.298 2.07802 16.987 2.06663C15.676 2.05524 14.413 2.55921 13.47 3.47L11.75 5.18" stroke="currentColor" fill="none" stroke-width="2" stroke-linecap="round" stroke-linejoin="round"/>
            <path d="M14 11C13.5705 10.4259 13.0226 9.95082 12.3934 9.60706C11.7642 9.2633 11.0684 9.05888 10.3533 9.00767C9.63816 8.95645 8.92037 9.05963 8.24861 9.31022C7.57685 9.5608 6.96684 9.95293 6.45996 10.46L3.45996 13.46C2.54917 14.403 2.04519 15.666 2.05659 16.977C2.06798 18.288 2.59382 19.5421 3.52086 20.4691C4.4479 21.3961 5.70197 21.922 7.01295 21.9334C8.32393 21.9448 9.58694 21.4408 10.53 20.53L12.24 18.82" stroke="currentColor" fill="none" stroke-width="2" stroke-linecap="round" stroke-linejoin="round"/>
        </symbol>
        <symbol id="epoch" viewBox="0 0 32 32" fill="none" >
            <path d="M16 29.3333C23.3638 29.3333 29.3333 23.3638 29.3333 16C29.3333 8.63621 23.3638 2.66667 16 2.66667C8.63616 2.66667 2.66663 8.63621 2.66663 16C2.66663 23.3638 8.63616 29.3333 16 29.3333Z" stroke="currentColor" stroke-width="2" stroke-linecap="round" stroke-linejoin="round"/>
            <path d="M16 8V16L21.3333 18.6667" stroke="currentColor" stroke-width="2" stroke-linecap="round" stroke-linejoin="round"/>
        </symbol>
        <symbol id="other" viewBox="0 0 20 21" fill="none" >
            <path d="M8.33333 3H2.5V8.83333H8.33333V3Z" stroke="currentColor" stroke-width="1.5" stroke-linecap="round" stroke-linejoin="round"/>
            <path d="M17.4993 3H11.666V8.83333H17.4993V3Z" stroke="currentColor" stroke-width="1.5" stroke-linecap="round" stroke-linejoin="round"/>
            <path d="M17.4993 12.1667H11.666V18.0001H17.4993V12.1667Z" stroke="currentColor" stroke-width="1.5" stroke-linecap="round" stroke-linejoin="round"/>
            <path d="M8.33333 12.1667H2.5V18.0001H8.33333V12.1667Z" stroke="currentColor" stroke-width="1.5" stroke-linecap="round" stroke-linejoin="round"/>
        </symbol>
        <symbol id="audio" viewBox="0 0 20 21" fill="none" >
            <path d="M9.16699 4.66602L5.00033 7.99935H1.66699V12.9993H5.00033L9.16699 16.3327V4.66602Z" stroke="currentColor" stroke-width="1.5" stroke-linecap="round" stroke-linejoin="round"/>
            <path d="M15.8919 4.6084C17.4541 6.17113 18.3317 8.29036 18.3317 10.5001C18.3317 12.7098 17.4541 14.829 15.8919 16.3917M12.9502 7.55007C13.7313 8.33143 14.1701 9.39105 14.1701 10.4959C14.1701 11.6007 13.7313 12.6604 12.9502 13.4417" stroke="currentColor" stroke-width="1.5" stroke-linecap="round" stroke-linejoin="round"/>
        </symbol>
        <symbol id="bg-remove" viewBox="0 0 16 16">
            <path d="M10 5.5H3C2.72386 5.5 2.5 5.72386 2.5 6V13C2.5 13.2761 2.72386 13.5 3 13.5H10C10.2761 13.5 10.5 13.2761 10.5 13V6C10.5 5.72386 10.2761 5.5 10 5.5Z" stroke="currentColor" fill="none" stroke-width="1.5" stroke-linecap="round" stroke-linejoin="round"/>
            <path d="M10 2.5H9" stroke="currentColor" fill="none" stroke-width="1.5" stroke-linecap="round" stroke-linejoin="round"/>
            <path d="M12.5 2.5H13C13.1326 2.5 13.2598 2.55268 13.3536 2.64645C13.4473 2.74021 13.5 2.86739 13.5 3V3.5" stroke="currentColor" fill="none" stroke-width="1.5" stroke-linecap="round" stroke-linejoin="round"/>
            <path d="M13.5 7V6" stroke="currentColor" fill="none" stroke-width="1.5" stroke-linecap="round" stroke-linejoin="round"/>
            <path d="M12.5 10.5H13C13.1326 10.5 13.2598 10.4473 13.3536 10.3536C13.4473 10.2598 13.5 10.1326 13.5 10V9.5" stroke="currentColor" fill="none" stroke-width="1.5" stroke-linecap="round" stroke-linejoin="round"/>
            <path d="M6.5 2.5H6C5.86739 2.5 5.74021 2.55268 5.64645 2.64645C5.55268 2.74021 5.5 2.86739 5.5 3V3.5" stroke="currentColor" fill="none" stroke-width="1.5" stroke-linecap="round" stroke-linejoin="round"/>
        </symbol>

        <symbol id="qr-old" viewBox="0 0 16 16">
            <path d="M6.5 3H3.5C3.22386 3 3 3.22386 3 3.5V6.5C3 6.77614 3.22386 7 3.5 7H6.5C6.77614 7 7 6.77614 7 6.5V3.5C7 3.22386 6.77614 3 6.5 3Z" stroke="currentColor" fill="none" stroke-width="1.5" stroke-linecap="round" stroke-linejoin="round"/>
            <path d="M6.5 9H3.5C3.22386 9 3 9.22386 3 9.5V12.5C3 12.7761 3.22386 13 3.5 13H6.5C6.77614 13 7 12.7761 7 12.5V9.5C7 9.22386 6.77614 9 6.5 9Z" stroke="currentColor" fill="none" stroke-width="1.5" stroke-linecap="round" stroke-linejoin="round"/>
            <path d="M12.5 3H9.5C9.22386 3 9 3.22386 9 3.5V6.5C9 6.77614 9.22386 7 9.5 7H12.5C12.7761 7 13 6.77614 13 6.5V3.5C13 3.22386 12.7761 3 12.5 3Z" stroke="currentColor" fill="none" stroke-width="1.5" stroke-linecap="round" stroke-linejoin="round"/>
            <path d="M9 9V11" stroke="currentColor" fill="none" stroke-width="1.5" stroke-linecap="round" stroke-linejoin="round"/>
            <path d="M9 13H11V9" stroke="currentColor" fill="none" stroke-width="1.5" stroke-linecap="round" stroke-linejoin="round"/>
            <path d="M11 10H13" stroke="currentColor" fill="none" stroke-width="1.5" stroke-linecap="round" stroke-linejoin="round"/>
            <path d="M13 12V13" stroke="currentColor" fill="none" stroke-width="1.5" stroke-linecap="round" stroke-linejoin="round"/>
        </symbol>

        <symbol id="page" viewBox="0 0 16 16">
            <path d="M13.5 3H2.5C2.22386 3 2 3.22386 2 3.5V12.5C2 12.7761 2.22386 13 2.5 13H13.5C13.7761 13 14 12.7761 14 12.5V3.5C14 3.22386 13.7761 3 13.5 3Z" stroke="currentColor" fill="none" stroke-width="1.5" stroke-linecap="round" stroke-linejoin="round"/>
            <path d="M2 6H14" stroke="currentColor" fill="none" stroke-width="1.5" stroke-linecap="round" stroke-linejoin="round"/>
        </symbol>
        <symbol id="edit-1" viewBox="0 0 16 16">
            <path d="M7.33398 2.66797H2.66732C2.3137 2.66797 1.97456 2.80844 1.72451 3.05849C1.47446 3.30854 1.33398 3.64768 1.33398 4.0013V13.3346C1.33398 13.6883 1.47446 14.0274 1.72451 14.2774C1.97456 14.5275 2.3137 14.668 2.66732 14.668H12.0007C12.3543 14.668 12.6934 14.5275 12.9435 14.2774C13.1935 14.0274 13.334 13.6883 13.334 13.3346V8.66797" stroke="currentColor" fill="none" stroke-width="1.5" stroke-linecap="round" stroke-linejoin="round"/>
            <path d="M12.334 1.66812C12.5992 1.4029 12.9589 1.25391 13.334 1.25391C13.7091 1.25391 14.0688 1.4029 14.334 1.66812C14.5992 1.93334 14.7482 2.29305 14.7482 2.66812C14.7482 3.04319 14.5992 3.4029 14.334 3.66812L8.00065 10.0015L5.33398 10.6681L6.00065 8.00145L12.334 1.66812Z" stroke="currentColor" fill="none" stroke-width="1.5" stroke-linecap="round" stroke-linejoin="round"/>
        </symbol>

        <symbol id="edit-2" viewBox="0 0 16 16">
            <path d="M8 13.332H14" stroke="currentColor" fill="none" stroke-width="1.5" stroke-linecap="round" stroke-linejoin="round"/>
            <path d="M11 2.33218C11.2652 2.06697 11.6249 1.91797 12 1.91797C12.1857 1.91797 12.3696 1.95455 12.5412 2.02562C12.7128 2.09669 12.8687 2.20086 13 2.33218C13.1313 2.4635 13.2355 2.61941 13.3066 2.79099C13.3776 2.96257 13.4142 3.14647 13.4142 3.33218C13.4142 3.5179 13.3776 3.7018 13.3066 3.87338C13.2355 4.04496 13.1313 4.20086 13 4.33218L4.66667 12.6655L2 13.3322L2.66667 10.6655L11 2.33218Z" stroke="currentColor" fill="none" stroke-width="1.5" stroke-linecap="round" stroke-linejoin="round"/>
        </symbol>
        <symbol id="profile-old" viewBox="0 0 16 16">
            <path fill-rule="evenodd" clip-rule="evenodd" d="M7.99028 10.2305C5.41187 10.2305 3.20996 10.6203 3.20996 12.1816C3.20996 13.7429 5.3979 14.1467 7.99028 14.1467C10.5687 14.1467 12.77 13.7562 12.77 12.1955C12.77 10.6349 10.5827 10.2305 7.99028 10.2305Z" fill="none" stroke="currentColor" stroke-width="1.5" stroke-linecap="round" stroke-linejoin="round"/>
            <path fill-rule="evenodd" clip-rule="evenodd" d="M7.98993 8.00262C9.68199 8.00262 11.0534 6.63056 11.0534 4.93849C11.0534 3.24643 9.68199 1.875 7.98993 1.875C6.29786 1.875 4.9258 3.24643 4.9258 4.93849C4.92008 6.62484 6.28262 7.99691 7.96834 8.00262H7.98993Z" stroke="currentColor" fill="none" stroke-width="1.42857" stroke-linecap="round" stroke-linejoin="round"/>
        </symbol>
        <symbol id="sign" viewBox="0 0 24 24">
            <path d="M5.53999 19.52C4.92999 19.52 4.35999 19.31 3.94999 18.92C3.42999 18.43 3.17999 17.69 3.26999 16.89L3.63999 13.65C3.70999 13.04 4.07999 12.23 4.50999 11.79L12.72 3.1C14.77 0.930003 16.91 0.870003 19.08 2.92C21.25 4.97 21.31 7.11 19.26 9.28L11.05 17.97C10.63 18.42 9.84999 18.84 9.23999 18.94L6.01999 19.49C5.84999 19.5 5.69999 19.52 5.53999 19.52ZM15.93 2.91C15.16 2.91 14.49 3.39 13.81 4.11L5.59999 12.81C5.39999 13.02 5.16999 13.52 5.12999 13.81L4.75999 17.05C4.71999 17.38 4.79999 17.65 4.97999 17.82C5.15999 17.99 5.42999 18.05 5.75999 18L8.97999 17.45C9.26999 17.4 9.74999 17.14 9.94999 16.93L18.16 8.24C19.4 6.92 19.85 5.7 18.04 4C17.24 3.23 16.55 2.91 15.93 2.91Z" fill="currentColor"/>
            <path d="M17.34 10.95C17.32 10.95 17.29 10.95 17.27 10.95C14.15 10.64 11.64 8.27 11.16 5.17C11.1 4.76 11.38 4.38 11.79 4.31C12.2 4.25 12.58 4.53 12.65 4.94C13.03 7.36 14.99 9.22 17.43 9.46C17.84 9.5 18.14 9.87 18.1 10.28C18.05 10.66 17.72 10.95 17.34 10.95Z" fill="currentColor"/>
            <path d="M21 22.75H3C2.59 22.75 2.25 22.41 2.25 22C2.25 21.59 2.59 21.25 3 21.25H21C21.41 21.25 21.75 21.59 21.75 22C21.75 22.41 21.41 22.75 21 22.75Z" fill="currentColor"/>
        </symbol>

        <symbol id="profile" viewBox="0 0 24 24">
            <path d="M12.12 13.53C12.1 13.53 12.07 13.53 12.05 13.53C12.02 13.53 11.98 13.53 11.95 13.53C9.68001 13.46 7.98001 11.69 7.98001 9.51C7.98001 7.29 9.79001 5.48 12.01 5.48C14.23 5.48 16.04 7.29 16.04 9.51C16.03 11.7 14.32 13.46 12.15 13.53C12.13 13.53 12.13 13.53 12.12 13.53ZM12 6.97C10.6 6.97 9.47001 8.11 9.47001 9.5C9.47001 10.87 10.54 11.98 11.9 12.03C11.93 12.02 12.03 12.02 12.13 12.03C13.47 11.96 14.52 10.86 14.53 9.5C14.53 8.11 13.4 6.97 12 6.97Z" fill="currentColor"/>
            <path d="M12 22.75C9.30999 22.75 6.73999 21.75 4.74999 19.93C4.56999 19.77 4.48999 19.53 4.50999 19.3C4.63999 18.11 5.37999 17 6.60999 16.18C9.58999 14.2 14.42 14.2 17.39 16.18C18.62 17.01 19.36 18.11 19.49 19.3C19.52 19.54 19.43 19.77 19.25 19.93C17.26 21.75 14.69 22.75 12 22.75ZM6.07999 19.1C7.73999 20.49 9.82999 21.25 12 21.25C14.17 21.25 16.26 20.49 17.92 19.1C17.74 18.49 17.26 17.9 16.55 17.42C14.09 15.78 9.91999 15.78 7.43999 17.42C6.72999 17.9 6.25999 18.49 6.07999 19.1Z" fill="currentColor"/>
            <path d="M12 22.75C6.07 22.75 1.25 17.93 1.25 12C1.25 6.07 6.07 1.25 12 1.25C17.93 1.25 22.75 6.07 22.75 12C22.75 17.93 17.93 22.75 12 22.75ZM12 2.75C6.9 2.75 2.75 6.9 2.75 12C2.75 17.1 6.9 21.25 12 21.25C17.1 21.25 21.25 17.1 21.25 12C21.25 6.9 17.1 2.75 12 2.75Z" fill="currentColor"/>
        </symbol>

        <symbol id="merge" viewBox="0 0 24 24" fill="none">
            <path d="M18 21C19.6569 21 21 19.6569 21 18C21 16.3431 19.6569 15 18 15C16.3431 15 15 16.3431 15 18C15 19.6569 16.3431 21 18 21Z" stroke="currentColor" stroke-width="1.5" stroke-linecap="round" stroke-linejoin="round"/>
            <path d="M6 9C7.65685 9 9 7.65685 9 6C9 4.34315 7.65685 3 6 3C4.34315 3 3 4.34315 3 6C3 7.65685 4.34315 9 6 9Z" stroke="currentColor" stroke-width="1.5" stroke-linecap="round" stroke-linejoin="round"/>
            <path d="M6 21V9C6 11.3869 6.94821 13.6761 8.63604 15.364C10.3239 17.0518 12.6131 18 15 18" stroke="currentColor" stroke-width="1.5" stroke-linecap="round" stroke-linejoin="round"/>
        </symbol>

        <symbol id="image" viewBox="0 0 24 24" fill="none">
            <path d="M9 22H15C20 22 22 20 22 15V9C22 4 20 2 15 2H9C4 2 2 4 2 9V15C2 20 4 22 9 22Z" stroke="currentColor" stroke-width="1.5" stroke-linecap="round" stroke-linejoin="round"/>
            <path d="M9 10C10.1046 10 11 9.10457 11 8C11 6.89543 10.1046 6 9 6C7.89543 6 7 6.89543 7 8C7 9.10457 7.89543 10 9 10Z" stroke="currentColor" stroke-width="1.5" stroke-linecap="round" stroke-linejoin="round"/>
            <path d="M2.67001 18.95L7.60001 15.64C8.39001 15.11 9.53001 15.17 10.24 15.78L10.57 16.07C11.35 16.74 12.61 16.74 13.39 16.07L17.55 12.5C18.33 11.83 19.59 11.83 20.37 12.5L22 13.9" stroke="currentColor" stroke-width="1.5" stroke-linecap="round" stroke-linejoin="round"/>
        </symbol>

        <symbol id="avatar-2" viewBox="0 0 24 24" fill="none">
            <path d="M12.12 12.78C12.05 12.77 11.96 12.77 11.88 12.78C10.12 12.72 8.71997 11.28 8.71997 9.51C8.71997 7.7 10.18 6.23 12 6.23C13.81 6.23 15.28 7.7 15.28 9.51C15.27 11.28 13.88 12.72 12.12 12.78Z" stroke="currentColor" stroke-width="1.5" stroke-linecap="round" stroke-linejoin="round"/>
            <path d="M18.74 19.38C16.96 21.01 14.6 22 12 22C9.40001 22 7.04001 21.01 5.26001 19.38C5.36001 18.44 5.96001 17.52 7.03001 16.8C9.77001 14.98 14.25 14.98 16.97 16.8C18.04 17.52 18.64 18.44 18.74 19.38Z" stroke="currentColor" stroke-width="1.5" stroke-linecap="round" stroke-linejoin="round"/>
            <path d="M12 22C17.5228 22 22 17.5228 22 12C22 6.47715 17.5228 2 12 2C6.47715 2 2 6.47715 2 12C2 17.5228 6.47715 22 12 22Z" stroke="currentColor" stroke-width="1.5" stroke-linecap="round" stroke-linejoin="round"/>
        </symbol>

        <symbol id="image-2" viewBox="0 0 24 24" fill="none">
            <path d="M21.68 16.96L18.55 9.65C17.49 7.17 15.54 7.07 14.23 9.43L12.34 12.84C11.38 14.57 9.58999 14.72 8.34999 13.17L8.12999 12.89C6.83999 11.27 5.01999 11.47 4.08999 13.32L2.36999 16.77C1.15999 19.17 2.90999 22 5.58999 22H18.35C20.95 22 22.7 19.35 21.68 16.96Z" stroke="CurrentColor" stroke-width="1.5" stroke-linecap="round" stroke-linejoin="round"/>
            <path d="M6.97 8C8.62686 8 9.97 6.65685 9.97 5C9.97 3.34315 8.62686 2 6.97 2C5.31315 2 3.97 3.34315 3.97 5C3.97 6.65685 5.31315 8 6.97 8Z" stroke="CurrentColor" stroke-width="1.5" stroke-linecap="round" stroke-linejoin="round"/>
        </symbol>

        <symbol id="instagram" viewBox="0 0 24 24" fill="none">
            <path d="M9 22H15C20 22 22 20 22 15V9C22 4 20 2 15 2H9C4 2 2 4 2 9V15C2 20 4 22 9 22Z" stroke="currentColor" stroke-width="1.5" stroke-linecap="round" stroke-linejoin="round"/>
            <path d="M12 15.5C13.933 15.5 15.5 13.933 15.5 12C15.5 10.067 13.933 8.5 12 8.5C10.067 8.5 8.5 10.067 8.5 12C8.5 13.933 10.067 15.5 12 15.5Z" stroke="currentColor" stroke-width="1.5" stroke-linecap="round" stroke-linejoin="round"/>
            <path d="M17.6361 7H17.6477" stroke="currentColor" stroke-width="2" stroke-linecap="round" stroke-linejoin="round"/>
        </symbol>

        <symbol id="compress" viewBox="0 0 24 24" fill="none">
            <path d="M8 3V6C8 6.53043 7.78929 7.03914 7.41421 7.41421C7.03914 7.78929 6.53043 8 6 8H3M21 8H18C17.4696 8 16.9609 7.78929 16.5858 7.41421C16.2107 7.03914 16 6.53043 16 6V3M16 21V18C16 17.4696 16.2107 16.9609 16.5858 16.5858C16.9609 16.2107 17.4696 16 18 16H21M3 16H6C6.53043 16 7.03914 16.2107 7.41421 16.5858C7.78929 16.9609 8 17.4696 8 18V21" stroke="currentColor" stroke-width="1.5" stroke-linecap="round" stroke-linejoin="round"/>
        </symbol>

        <symbol id="blur" viewBox="0 0 24 24" fill="none">
            <path d="M12.61 2.21C12.25 1.93 11.75 1.93 11.39 2.21C9.49001 3.66 3.87997 8.39 3.90997 13.9C3.90997 18.36 7.54001 22 12.01 22C16.48 22 20.11 18.37 20.11 13.91C20.12 8.48 14.5 3.67 12.61 2.21Z" stroke="#93CA1C" stroke-width="1.5" stroke-miterlimit="10"/>
            <path d="M12 2V22" stroke="currentColor" stroke-width="1.5" stroke-linecap="round" stroke-linejoin="round"/>
            <path d="M12 18.96L19.7 15.22" stroke="currentColor" stroke-width="1.5" stroke-linecap="round" stroke-linejoin="round"/>
            <path d="M12 13.96L19.37 10.38" stroke="currentColor" stroke-width="1.5" stroke-linecap="round" stroke-linejoin="round"/>
            <path d="M12 8.96001L17.03 6.51001" stroke="currentColor" stroke-width="1.5" stroke-linecap="round" stroke-linejoin="round"/>
        </symbol>

        <symbol id="qr" viewBox="0 0 24 24" fill="none">
            <path d="M2 9V6.5C2 4.01 4.01 2 6.5 2H9" stroke="currentColor" stroke-width="1.5" stroke-linecap="round" stroke-linejoin="round"/>
            <path d="M15 2H17.5C19.99 2 22 4.01 22 6.5V9" stroke="currentColor" stroke-width="1.5" stroke-linecap="round" stroke-linejoin="round"/>
            <path d="M22 16V17.5C22 19.99 19.99 22 17.5 22H16" stroke="currentColor" stroke-width="1.5" stroke-linecap="round" stroke-linejoin="round"/>
            <path d="M9 22H6.5C4.01 22 2 19.99 2 17.5V15" stroke="currentColor" stroke-width="1.5" stroke-linecap="round" stroke-linejoin="round"/>
            <path d="M10.5 7V9C10.5 10 10 10.5 9 10.5H7C6 10.5 5.5 10 5.5 9V7C5.5 6 6 5.5 7 5.5H9C10 5.5 10.5 6 10.5 7Z" stroke="currentColor" stroke-width="1.5" stroke-linecap="round" stroke-linejoin="round"/>
            <path d="M18.5 7V9C18.5 10 18 10.5 17 10.5H15C14 10.5 13.5 10 13.5 9V7C13.5 6 14 5.5 15 5.5H17C18 5.5 18.5 6 18.5 7Z" stroke="currentColor" stroke-width="1.5" stroke-linecap="round" stroke-linejoin="round"/>
            <path d="M10.5 15V17C10.5 18 10 18.5 9 18.5H7C6 18.5 5.5 18 5.5 17V15C5.5 14 6 13.5 7 13.5H9C10 13.5 10.5 14 10.5 15Z" stroke="currentColor" stroke-width="1.5" stroke-linecap="round" stroke-linejoin="round"/>
            <path d="M18.5 15V17C18.5 18 18 18.5 17 18.5H15C14 18.5 13.5 18 13.5 17V15C13.5 14 14 13.5 15 13.5H17C18 13.5 18.5 14 18.5 15Z" stroke="currentColor" stroke-width="1.5" stroke-linecap="round" stroke-linejoin="round"/>
        </symbol>

        <symbol id="video-cut" viewBox="0 0 24 24" fill="none">
            <path d="M16.63 7.58C16.63 7.58 16.66 6.63 16.63 6.32C16.46 4.28 15.13 3.58 12.52 3.58H6.21C3.05 3.58 2 4.63 2 7.79V16.21C2 17.47 2.38 18.74 3.37 19.55L4 20" stroke="currentColor" stroke-width="1.5" stroke-linecap="round" stroke-linejoin="round"/>
            <path d="M16.74 10.95V16.21C16.74 19.37 15.69 20.42 12.53 20.42H7.26001" stroke="currentColor" stroke-width="1.5" stroke-linecap="round" stroke-linejoin="round"/>
            <path d="M22 6.74001V15.81C22 17.48 20.88 18.06 19.52 17.1L16.74 15.15" stroke="currentColor" stroke-width="1.5" stroke-linecap="round" stroke-linejoin="round"/>
            <path d="M22.02 2.19L2.01999 22.19" stroke="currentColor" stroke-width="1.5" stroke-linecap="round" stroke-linejoin="round"/>
        </symbol>

        <symbol id="sign-v3" width="24" height="24" viewBox="0 0 24 24" fill="none">
                <path d="M5.53999 19.52C4.92999 19.52 4.35999 19.31 3.94999 18.92C3.42999 18.43 3.17999 17.69 3.26999 16.89L3.63999 13.65C3.70999 13.04 4.07999 12.23 4.50999 11.79L12.72 3.1C14.77 0.930003 16.91 0.870003 19.08 2.92C21.25 4.97 21.31 7.11 19.26 9.28L11.05 17.97C10.63 18.42 9.84999 18.84 9.23999 18.94L6.01999 19.49C5.84999 19.5 5.69999 19.52 5.53999 19.52ZM15.93 2.91C15.16 2.91 14.49 3.39 13.81 4.11L5.59999 12.81C5.39999 13.02 5.16999 13.52 5.12999 13.81L4.75999 17.05C4.71999 17.38 4.79999 17.65 4.97999 17.82C5.15999 17.99 5.42999 18.05 5.75999 18L8.97999 17.45C9.26999 17.4 9.74999 17.14 9.94999 16.93L18.16 8.24C19.4 6.92 19.85 5.7 18.04 4C17.24 3.23 16.55 2.91 15.93 2.91Z" fill="#E54F6D"/>
                <path d="M17.34 10.95C17.32 10.95 17.29 10.95 17.27 10.95C14.15 10.64 11.64 8.27 11.16 5.17C11.1 4.76 11.38 4.38 11.79 4.31C12.2 4.25 12.58 4.53 12.65 4.94C13.03 7.36 14.99 9.22 17.43 9.46C17.84 9.5 18.14 9.87 18.1 10.28C18.05 10.66 17.72 10.95 17.34 10.95Z" fill="#E54F6D"/>
                <path d="M21 22.75H3C2.59 22.75 2.25 22.41 2.25 22C2.25 21.59 2.59 21.25 3 21.25H21C21.41 21.25 21.75 21.59 21.75 22C21.75 22.41 21.41 22.75 21 22.75Z" fill="#E54F6D"/>

        </symbol>
        <symbol id="resume-v3" width="24" height="24" viewBox="0 0 24 24" fill="none">
            <path d="M12.12 13.53C12.1 13.53 12.07 13.53 12.05 13.53C12.02 13.53 11.98 13.53 11.95 13.53C9.68001 13.46 7.98001 11.69 7.98001 9.51C7.98001 7.29 9.79001 5.48 12.01 5.48C14.23 5.48 16.04 7.29 16.04 9.51C16.03 11.7 14.32 13.46 12.15 13.53C12.13 13.53 12.13 13.53 12.12 13.53ZM12 6.97C10.6 6.97 9.47001 8.11 9.47001 9.5C9.47001 10.87 10.54 11.98 11.9 12.03C11.93 12.02 12.03 12.02 12.13 12.03C13.47 11.96 14.52 10.86 14.53 9.5C14.53 8.11 13.4 6.97 12 6.97Z" fill="#764FE5"/>
            <path d="M12 22.75C9.30999 22.75 6.73999 21.75 4.74999 19.93C4.56999 19.77 4.48999 19.53 4.50999 19.3C4.63999 18.11 5.37999 17 6.60999 16.18C9.58999 14.2 14.42 14.2 17.39 16.18C18.62 17.01 19.36 18.11 19.49 19.3C19.52 19.54 19.43 19.77 19.25 19.93C17.26 21.75 14.69 22.75 12 22.75ZM6.07999 19.1C7.73999 20.49 9.82999 21.25 12 21.25C14.17 21.25 16.26 20.49 17.92 19.1C17.74 18.49 17.26 17.9 16.55 17.42C14.09 15.78 9.91999 15.78 7.43999 17.42C6.72999 17.9 6.25999 18.49 6.07999 19.1Z" fill="#764FE5"/>
            <path d="M12 22.75C6.07 22.75 1.25 17.93 1.25 12C1.25 6.07 6.07 1.25 12 1.25C17.93 1.25 22.75 6.07 22.75 12C22.75 17.93 17.93 22.75 12 22.75ZM12 2.75C6.9 2.75 2.75 6.9 2.75 12C2.75 17.1 6.9 21.25 12 21.25C17.1 21.25 21.25 17.1 21.25 12C21.25 6.9 17.1 2.75 12 2.75Z" fill="#764FE5"/>

        </symbol>
    </defs>
</svg>
