<svg width="25" height="230" viewBox="0 0 25 230" fill="none" xmlns="http://www.w3.org/2000/svg">
<path d="M21.2414 7.51029L6.39826 7.13396L5.55313 13.0345L21.2414 7.51029Z" fill="#FBB76C"/>
<path d="M12.832 21.8594L5.55351 13.0338L21.2418 7.50963L12.832 21.8594Z" fill="#FEC272"/>
<path d="M2 60C2.55228 60 3 59.3284 3 58.5C3 57.6716 2.55228 57 2 57C1.44771 57 1 57.6716 1 58.5C1 59.3284 1.44771 60 2 60Z" fill="#7299FE"/>
<path d="M10.4161 223.035L8.4069 227.29L6.08121 224.285L8.40684 219.997L10.4161 223.035Z" fill="#F396BF"/>
<path d="M6.08225 224.285L0.996047 223.855L3.42816 226.814L8.40794 227.29L6.08225 224.285Z" fill="#EA62A3"/>
<path d="M8.4068 219.998L6.08118 224.285L0.994983 223.855L3.24955 219.961L8.4068 219.998Z" fill="#ED74B3"/>
<path d="M20.4605 169.065L17.593 162.021L14.6501 162.834L20.4605 169.065Z" fill="#806CFB"/>
<path d="M12 168.061L14.6498 162.834L20.4602 169.065L12 168.061Z" fill="#A192FC"/>
</svg>
