<svg width="75" height="241" viewBox="0 0 75 241" fill="none" xmlns="http://www.w3.org/2000/svg">
<path d="M48.3028 88.3919L68.9378 92.3899L71.4982 84.3496L48.3028 88.3919Z" fill="#6C9BFB"/>
<path d="M63.4014 70.3257L71.4984 84.3502L48.303 88.3924L63.4014 70.3257Z" fill="#92B5FC"/>
<path d="M28.0004 232.903L33.8372 233.987L32.7538 239.824L28.0004 232.903Z" fill="#72A2FE"/>
<path d="M9.46585 1.55719L16.8648 5.92471L11.0114 9.64883L3.60619 4.70049L9.46585 1.55719Z" fill="#F396BF"/>
<path d="M11.0124 9.64809L9.37656 18.8237L15.1637 14.8983L16.8658 5.92397L11.0124 9.64809Z" fill="#EA62A3"/>
<path d="M3.60715 4.70069L11.0123 9.64902L9.37654 18.8246L2.6737 14.0714L3.60715 4.70069Z" fill="#ED74B3"/>
<path d="M16.189 153.669L14.6699 148L9.00048 149.519L10.5196 155.189L16.189 153.669Z" fill="#FEC272"/>
<path d="M55.5 172C56.8807 172 58 170.881 58 169.5C58 168.119 56.8807 167 55.5 167C54.1193 167 53 168.119 53 169.5C53 170.881 54.1193 172 55.5 172Z" fill="#7299FE"/>
</svg>
